<svg width="28" height="28" viewBox="0 0 28 28" fill="none" xmlns="http://www.w3.org/2000/svg">
<path d="M14 0C6.28059 0 9.03444e-05 6.28052 9.03444e-05 14C9.03444e-05 16.4104 0.622784 18.7807 1.80365 20.8722L0.022612 27.227C-0.0358226 27.4357 0.020786 27.6597 0.171742 27.815C0.288002 27.9349 0.446263 28 0.608784 28C0.657479 28 0.706784 27.9939 0.75487 27.9823L7.3872 26.3395C9.41232 27.4266 11.6931 28 14 28C21.7195 28 28 21.7195 28 14C28 6.28052 21.7195 0 14 0ZM21.0426 18.9402C20.7432 19.7692 19.3066 20.5258 18.6164 20.6275C17.9967 20.7182 17.2127 20.7571 16.352 20.4869C15.8304 20.3225 15.1608 20.1046 14.3032 19.7388C10.6979 18.2012 8.34345 14.6166 8.16328 14.3798C7.98372 14.143 6.69572 12.4557 6.69572 10.7094C6.69572 8.96304 7.62398 8.10417 7.95389 7.74869C8.2838 7.39322 8.67276 7.30435 8.91258 7.30435C9.15241 7.30435 9.39163 7.30739 9.60162 7.31713C9.82258 7.32809 10.119 7.23374 10.4106 7.92643C10.7101 8.63739 11.4289 10.3837 11.5178 10.5621C11.6079 10.7398 11.6675 10.9474 11.5482 11.1842C11.4289 11.421 11.3693 11.5689 11.1891 11.7764C11.0089 11.984 10.8117 12.239 10.6498 12.3985C10.4696 12.5757 10.2828 12.7674 10.4921 13.1229C10.7015 13.4783 11.4228 14.6403 12.4917 15.5814C13.8643 16.7903 15.0227 17.1652 15.3818 17.343C15.7409 17.5207 15.9509 17.4909 16.1603 17.2541C16.3697 17.0167 17.0587 16.2175 17.2979 15.8626C17.5372 15.5077 17.777 15.5662 18.1069 15.6849C18.4368 15.803 20.2039 16.6612 20.563 16.839C20.9221 17.0167 21.1619 17.1056 21.252 17.2535C21.3421 17.4008 21.3421 18.1117 21.0426 18.9402Z" fill="#999999"/>
</svg>
