<svg width="19" height="32" viewBox="0 0 19 32" fill="none" xmlns="http://www.w3.org/2000/svg">
<path d="M9.18632 16.1149C4.6815 16.1149 0.937328 12.459 0.937328 8.13304C0.937328 3.65745 4.6815 0 9.18791 0C13.8474 0 17.4369 3.6559 17.4369 8.13304C17.4289 10.2572 16.5582 12.2913 15.0162 13.7883C13.4741 15.2853 11.387 16.1227 9.21342 16.1165L9.18632 16.1149ZM9.18632 4.70155C7.27915 4.70155 5.82804 6.26769 5.82804 8.1346C5.82804 9.99839 7.27915 11.4165 9.18791 11.4165C11.1732 11.4165 12.5478 9.99839 12.5478 8.1346C12.5494 6.26614 11.1732 4.70155 9.18632 4.70155ZM12.4712 22.7566L17.1323 27.159C18.0492 28.1267 18.0492 29.5448 17.1323 30.4409C16.1405 31.4086 14.6112 31.4086 13.8474 30.4409L9.18791 25.9637L4.6815 30.4409C4.22385 30.8881 3.61151 31.111 2.92263 31.111C2.38843 31.111 1.77769 30.8866 1.2419 30.4409C0.324993 29.5448 0.324993 28.1267 1.2419 27.1574L5.97793 22.7551C4.26759 22.2601 2.62689 21.5592 1.0936 20.6684C-0.0529338 20.0716 -0.280964 18.5802 0.329776 17.4598C1.0936 16.3409 2.46817 16.0432 3.69124 16.7897C5.34741 17.7774 7.25009 18.3 9.1903 18.3C11.1305 18.3 13.0332 17.7774 14.6894 16.7897C15.9124 16.0432 17.362 16.3409 18.0492 17.4598C18.7381 18.5802 18.4303 20.07 17.3604 20.6684C15.9108 21.5645 14.2301 22.2361 12.4728 22.7582L12.4712 22.7566Z" fill="#999999"/>
</svg>
